<?xml version="1.0"?>
<svg xmlns="http://www.w3.org/2000/svg" width="500" height="107" viewBox="0 0 500 107" fill="none">
<mask id="mask0" maskUnits="userSpaceOnUse" x="0" y="0" width="500" height="107">
<path d="M20.6931 73.1272C19.7479 70.3691 19.3262 66.867 19.3262 62.1999C19.3262 57.531 19.7479 54.0307 20.6931 51.2709C23.2143 43.4213 29.8326 39.0703 38.5558 39.0703C45.0705 39.0703 50.1164 41.7235 53.5828 45.9662C53.8973 46.2859 53.8973 46.9216 53.4774 47.2395L47.8025 52.3329C47.3808 52.6525 46.8573 52.6525 46.5428 52.1198C44.3343 49.6796 42.1276 48.3015 38.5558 48.3015C34.6695 48.3015 31.7266 50.2107 30.4651 54.0307C29.8326 56.2577 29.6236 58.8043 29.6236 62.1999C29.6236 65.5937 29.8344 68.2469 30.5705 70.4757C31.832 74.1874 34.7731 76.2048 38.6612 76.2048C42.233 76.2048 44.5469 74.8249 46.6482 72.3848C46.9627 71.9604 47.488 71.9604 47.9079 72.2783L53.5828 77.3716C54.0027 77.6895 53.8973 78.2205 53.6882 78.6449C50.22 82.7828 45.1759 85.4343 38.6612 85.4343C29.9398 85.3277 23.2143 81.0833 20.6931 73.1272ZM215.712 73.1272C214.767 70.3691 214.345 66.867 214.345 62.1999C214.345 57.531 214.767 54.0307 215.712 51.2709C218.233 43.4213 224.853 39.0703 233.575 39.0703C240.089 39.0703 245.239 41.7235 248.602 45.9662C248.916 46.2859 248.916 46.9216 248.496 47.2395L242.822 52.3329C242.4 52.6525 241.876 52.6525 241.562 52.1198C239.353 49.6796 237.147 48.3015 233.575 48.3015C229.688 48.3015 226.746 50.2107 225.484 54.0307C224.75 56.2577 224.537 58.8043 224.537 62.1999C224.537 65.5937 224.748 68.2469 225.484 70.4757C226.746 74.1874 229.688 76.2048 233.575 76.2048C237.147 76.2048 239.46 74.8249 241.562 72.3848C241.876 71.9604 242.402 71.9604 242.822 72.2783L248.496 77.3716C248.916 77.6895 248.813 78.2205 248.602 78.6449C245.134 82.7828 240.089 85.4343 233.575 85.4343C224.853 85.3277 218.233 81.0833 215.712 73.1272ZM444.362 84.2675C443.837 84.2675 443.417 83.9478 443.417 83.3121V57.8489C443.417 52.1198 440.58 48.195 435.221 48.195C429.968 48.195 426.919 52.1198 426.919 57.8489V83.3121C426.919 83.8431 426.603 84.2675 425.974 84.2675H417.673C417.146 84.2675 416.728 83.9478 416.728 83.3121V57.8489C416.728 52.1198 413.89 48.195 408.53 48.195C403.276 48.195 400.228 52.1198 400.228 57.8489V83.3121C400.228 83.8431 399.914 84.2675 399.283 84.2675H390.981C390.458 84.2675 390.036 83.9478 390.036 83.3121V40.9794C390.036 40.4502 390.353 40.0257 390.981 40.0257H399.283C399.81 40.0257 400.228 40.3436 400.228 40.9794V44.1636H400.334C402.226 41.4056 406.009 39.0703 411.789 39.0703C416.937 39.0703 421.035 41.1925 423.662 44.906H423.768C427.129 41.1925 431.438 39.0703 437.637 39.0703C447.725 39.0703 453.4 46.0728 453.4 55.5153V83.4186C453.4 83.9496 453.084 84.3741 452.453 84.3741L444.362 84.2675ZM465.127 99.8637C464.6 99.8637 464.18 99.544 464.18 98.9082V91.5879C464.18 91.0569 464.497 90.6342 465.127 90.6342H466.703C470.172 90.6342 471.851 89.0412 473.218 85.4343L474.479 81.7208L458.611 40.0257C458.402 39.4947 458.822 39.0703 459.349 39.0703H468.279C468.805 39.0703 469.224 39.39 469.33 40.0257L479.102 68.8845H479.313L488.665 40.0257C488.876 39.4947 489.19 39.0703 489.714 39.0703H498.226C498.753 39.0703 499.173 39.39 498.962 40.0257L482.57 86.1766C478.787 96.6794 475.214 99.9702 467.965 99.9702L465.127 99.8637ZM87.2666 70.3674C88.0028 68.0338 88.2118 65.9098 88.2118 62.1981C88.2118 58.4865 88.001 56.469 87.2666 54.0289C86.0051 50.3154 83.1677 48.2998 79.176 48.2998C75.1825 48.2998 72.2414 50.422 70.9799 54.0289C70.242 56.3624 70.0329 58.3799 70.0329 62.1981C70.0329 65.9098 70.2437 68.0338 70.9799 70.3674C72.2414 74.0808 75.0788 76.0983 79.176 76.0983C83.1677 76.203 86.0051 74.0808 87.2666 70.3674ZM61.2079 73.1254C60.2626 70.0495 59.7355 67.0801 59.7355 62.1981C59.7355 57.3179 60.1572 54.4533 61.2079 51.2709C63.6236 43.5261 70.242 39.0703 79.0705 39.0703C87.7919 39.0703 94.412 43.5261 96.8278 51.2709C97.7748 54.3468 98.3001 57.3179 98.3001 62.1981C98.3001 67.0801 97.8785 69.9429 96.8278 73.1254C94.412 80.8702 87.7919 85.326 79.0705 85.326C70.3492 85.326 63.729 80.8702 61.2079 73.1254ZM272.828 39.0703C286.067 39.0703 290.902 43.7392 291.112 54.5599V83.3121C291.112 83.9478 290.691 84.2675 290.165 84.2675H282.6C281.969 84.2675 281.655 83.8431 281.655 83.3121V80.1296H281.549C279.552 83.1007 275.455 85.223 269.36 85.223C261.375 85.223 254.755 80.9767 254.755 71.7473C254.755 62.1999 261.375 57.7423 272.092 57.7423H275.666C276.294 57.7423 276.611 58.1686 276.611 58.6978V64.5335C276.611 65.1692 276.189 65.4871 275.666 65.4871H273.668C267.153 65.4871 264.318 67.2915 264.318 71.4294C264.318 75.1428 266.944 76.9454 271.776 76.9454C277.976 76.9454 281.444 74.5053 281.444 69.4137V54.6664C281.235 49.891 278.817 47.7705 271.776 47.7705C266.942 47.7705 264.001 49.1504 261.898 50.8482C261.48 51.1643 260.953 51.0578 260.639 50.6351L257.276 44.5863C257.065 44.1636 257.17 43.7392 257.487 43.4213C260.953 40.7681 265.683 39.0703 272.828 39.0703ZM166.437 57.7423L166.436 57.7441H178.731C179.047 57.7441 179.258 57.531 179.258 57.2113C179.258 55.7267 179.047 54.5599 178.731 53.4997C177.576 49.891 174.423 47.7705 170.324 47.7705C166.226 47.7705 162.969 49.891 161.815 53.4997C161.709 53.9241 161.604 54.3485 161.499 54.8778V55.0909C161.184 57.1066 161.079 58.6978 160.973 61.2445C160.959 63.3776 161.134 65.5078 161.497 67.6094C161.602 68.2469 161.813 68.8827 162.024 69.5203C163.389 73.8695 166.859 76.2048 171.691 76.2048C176.631 76.2048 179.678 74.4005 181.884 71.9604C182.304 71.4294 182.829 71.4294 183.249 71.7473L188.503 76.5227C188.924 76.8406 188.924 77.3698 188.608 77.7961C184.825 82.2501 178.731 85.3277 170.745 85.3277C161.604 85.3277 155.089 80.7654 152.672 73.0206C151.727 70.156 151.096 66.7605 151.096 62.1999C151.096 57.6358 151.623 54.1372 152.566 51.2709C154.984 43.5279 161.708 39.0703 170.324 39.0703C179.256 39.0703 185.771 43.7392 188.188 51.2709C189.239 54.3485 189.66 57.4244 189.66 64.5335C189.66 65.1692 189.344 65.4889 188.715 65.4889H166.437C166.121 65.4889 166.016 65.2758 166.016 65.0627V58.1686C166.016 57.8489 166.226 57.7423 166.437 57.7423ZM142.719 21.3111C143.242 21.3111 143.664 21.629 143.769 21.8403V82.3158C143.769 82.9516 143.35 83.2712 142.824 83.2712H134.523C133.894 83.2712 133.577 82.8468 133.577 82.3158V79.0268H133.472C131.474 81.9979 127.903 84.2267 122.019 84.2267C114.662 84.2267 109.198 80.7245 106.992 73.6173C105.837 70.2217 105.416 67.1441 105.416 61.2036C105.416 55.2614 105.941 52.1855 106.992 48.7899C109.198 41.7857 114.453 38.2871 121.702 38.1806H127.903C128.113 38.2853 128.219 38.3919 128.219 38.605V46.9874C128.219 47.1987 128.113 47.41 127.903 47.41H124.331C120.441 47.5166 117.709 49.5322 116.555 53.1391C115.924 55.1548 115.608 57.3836 115.608 61.4149C115.608 65.4463 115.922 67.6751 116.555 69.6907C117.709 73.2976 120.546 75.3151 124.54 75.3151C128.639 75.3151 131.474 73.4042 132.632 69.6907C133.05 68.2061 133.367 66.5083 133.472 63.9616V22.2665C133.472 21.6307 133.892 21.3111 134.417 21.3111H142.719ZM359.699 57.7423L359.698 57.7441H371.993C372.309 57.7441 372.52 57.531 372.52 57.2113C372.52 55.7267 372.309 54.5599 371.993 53.4997C370.838 49.891 367.685 47.7705 363.586 47.7705C359.489 47.7705 356.231 49.891 355.077 53.4997C354.971 53.9241 354.866 54.3485 354.761 54.8778V55.0909C354.446 57.1066 354.341 58.6978 354.235 61.2445C354.221 63.3776 354.396 65.5078 354.759 67.6094C354.864 68.2469 355.075 68.8827 355.286 69.5203C356.651 73.8695 360.121 76.2048 364.953 76.2048C369.893 76.2048 372.94 74.4005 375.146 71.9604C375.566 71.4294 376.092 71.4294 376.511 71.7473L381.765 76.5227C382.186 76.8406 382.186 77.3698 381.87 77.7961C378.087 82.2501 371.993 85.3277 364.007 85.3277C354.866 85.3277 348.351 80.7654 345.934 73.0206C344.989 70.156 344.358 66.7605 344.358 62.1999C344.358 57.6358 344.883 54.1372 345.828 51.2709C348.246 43.5279 354.97 39.0703 363.586 39.0703C372.518 39.0703 379.033 43.7392 381.45 51.2709C382.501 54.3485 382.922 57.4244 382.922 64.5335C382.922 65.1692 382.606 65.4889 381.977 65.4889H359.699C359.383 65.4889 359.278 65.2758 359.278 65.0627V58.1686C359.278 57.8489 359.489 57.7423 359.699 57.7423ZM335.981 21.3111C336.504 21.3111 336.926 21.629 337.137 22.16V82.6337C337.137 83.2694 336.717 83.5891 336.19 83.5891H327.888C327.259 83.5891 326.945 83.1647 326.945 82.6337V79.3464H326.84C324.737 82.3158 321.165 84.5446 315.281 84.5446C307.924 84.5446 302.46 81.0424 300.254 73.9352C299.099 70.5396 298.678 67.3572 298.678 61.4149C298.678 55.3679 299.203 52.2903 300.254 48.8947C302.46 41.894 307.819 38.3919 315.07 38.2853H321.165C321.794 38.2853 322.11 38.7098 322.11 39.2408V46.5611C322.11 47.1987 321.69 47.5166 321.165 47.5166H317.593C313.703 47.6214 310.971 49.6388 309.817 53.2457C309.186 55.2614 308.87 57.4902 308.87 61.5215C308.87 65.5528 309.184 67.7816 309.817 69.7973C310.971 73.509 313.703 75.5264 317.802 75.5264C321.901 75.5264 324.737 73.509 325.894 69.7973C326.312 68.3126 326.629 66.6131 326.734 64.0682V22.2665C326.734 21.6307 327.154 21.3111 327.679 21.3111H335.981ZM245.97 95.8998C247.419 95.8998 247.727 96.3402 247.727 97.6757V104.779C247.727 106.225 247.317 106.555 245.97 106.555H217.859C216.41 106.555 216.102 106.115 216.102 104.779V97.6757C216.102 96.2301 216.357 95.8998 217.859 95.8998H245.97ZM0 1.77592C0 0.532777 0.210831 0.213111 0 0H207.318C208.442 0 208.653 0.106555 209.074 0V104.779C209.074 105.916 208.969 106.129 209.074 106.555C208.653 106.449 208.442 106.555 207.318 106.555H0V106.547L0.0366027 106.407C0.0658848 106.23 0.0248898 106.147 0.00732053 106.348L0 106.483V1.77592ZM10.5416 95.8998H198.533C198.322 95.6885 198.533 95.3724 198.533 94.1239V10.6555H10.5416V95.8998Z" fill="white"/>
</mask>
<g mask="url(#mask0)">
<path d="M20.6931 73.1272C19.7479 70.3691 19.3262 66.867 19.3262 62.1999C19.3262 57.531 19.7479 54.0307 20.6931 51.2709C23.2143 43.4213 29.8326 39.0703 38.5558 39.0703C45.0705 39.0703 50.1164 41.7235 53.5828 45.9662C53.8973 46.2859 53.8973 46.9216 53.4774 47.2395L47.8025 52.3329C47.3808 52.6525 46.8573 52.6525 46.5428 52.1198C44.3343 49.6796 42.1276 48.3015 38.5558 48.3015C34.6695 48.3015 31.7266 50.2107 30.4651 54.0307C29.8326 56.2577 29.6236 58.8043 29.6236 62.1999C29.6236 65.5937 29.8344 68.2469 30.5705 70.4757C31.832 74.1874 34.7731 76.2048 38.6612 76.2048C42.233 76.2048 44.5469 74.8249 46.6482 72.3848C46.9627 71.9604 47.488 71.9604 47.9079 72.2783L53.5828 77.3716C54.0027 77.6895 53.8973 78.2205 53.6882 78.6449C50.22 82.7828 45.1759 85.4343 38.6612 85.4343C29.9398 85.3277 23.2143 81.0833 20.6931 73.1272ZM215.712 73.1272C214.767 70.3691 214.345 66.867 214.345 62.1999C214.345 57.531 214.767 54.0307 215.712 51.2709C218.233 43.4213 224.853 39.0703 233.575 39.0703C240.089 39.0703 245.239 41.7235 248.602 45.9662C248.916 46.2859 248.916 46.9216 248.496 47.2395L242.822 52.3329C242.4 52.6525 241.876 52.6525 241.562 52.1198C239.353 49.6796 237.147 48.3015 233.575 48.3015C229.688 48.3015 226.746 50.2107 225.484 54.0307C224.75 56.2577 224.537 58.8043 224.537 62.1999C224.537 65.5937 224.748 68.2469 225.484 70.4757C226.746 74.1874 229.688 76.2048 233.575 76.2048C237.147 76.2048 239.46 74.8249 241.562 72.3848C241.876 71.9604 242.402 71.9604 242.822 72.2783L248.496 77.3716C248.916 77.6895 248.813 78.2205 248.602 78.6449C245.134 82.7828 240.089 85.4343 233.575 85.4343C224.853 85.3277 218.233 81.0833 215.712 73.1272ZM444.362 84.2675C443.837 84.2675 443.417 83.9478 443.417 83.3121V57.8489C443.417 52.1198 440.58 48.195 435.221 48.195C429.968 48.195 426.919 52.1198 426.919 57.8489V83.3121C426.919 83.8431 426.603 84.2675 425.974 84.2675H417.673C417.146 84.2675 416.728 83.9478 416.728 83.3121V57.8489C416.728 52.1198 413.89 48.195 408.53 48.195C403.276 48.195 400.228 52.1198 400.228 57.8489V83.3121C400.228 83.8431 399.914 84.2675 399.283 84.2675H390.981C390.458 84.2675 390.036 83.9478 390.036 83.3121V40.9794C390.036 40.4502 390.353 40.0257 390.981 40.0257H399.283C399.81 40.0257 400.228 40.3436 400.228 40.9794V44.1636H400.334C402.226 41.4056 406.009 39.0703 411.789 39.0703C416.937 39.0703 421.035 41.1925 423.662 44.906H423.768C427.129 41.1925 431.438 39.0703 437.637 39.0703C447.725 39.0703 453.4 46.0728 453.4 55.5153V83.4186C453.4 83.9496 453.084 84.3741 452.453 84.3741L444.362 84.2675ZM465.127 99.8637C464.6 99.8637 464.18 99.544 464.18 98.9082V91.5879C464.18 91.0569 464.497 90.6342 465.127 90.6342H466.703C470.172 90.6342 471.851 89.0412 473.218 85.4343L474.479 81.7208L458.611 40.0257C458.402 39.4947 458.822 39.0703 459.349 39.0703H468.279C468.805 39.0703 469.224 39.39 469.33 40.0257L479.102 68.8845H479.313L488.665 40.0257C488.876 39.4947 489.19 39.0703 489.714 39.0703H498.226C498.753 39.0703 499.173 39.39 498.962 40.0257L482.57 86.1766C478.787 96.6794 475.214 99.9702 467.965 99.9702L465.127 99.8637ZM87.2666 70.3674C88.0028 68.0338 88.2118 65.9098 88.2118 62.1981C88.2118 58.4865 88.001 56.469 87.2666 54.0289C86.0051 50.3154 83.1677 48.2998 79.176 48.2998C75.1825 48.2998 72.2414 50.422 70.9799 54.0289C70.242 56.3624 70.0329 58.3799 70.0329 62.1981C70.0329 65.9098 70.2437 68.0338 70.9799 70.3674C72.2414 74.0808 75.0788 76.0983 79.176 76.0983C83.1677 76.203 86.0051 74.0808 87.2666 70.3674ZM61.2079 73.1254C60.2626 70.0495 59.7355 67.0801 59.7355 62.1981C59.7355 57.3179 60.1572 54.4533 61.2079 51.2709C63.6236 43.5261 70.242 39.0703 79.0705 39.0703C87.7919 39.0703 94.412 43.5261 96.8278 51.2709C97.7748 54.3468 98.3001 57.3179 98.3001 62.1981C98.3001 67.0801 97.8785 69.9429 96.8278 73.1254C94.412 80.8702 87.7919 85.326 79.0705 85.326C70.3492 85.326 63.729 80.8702 61.2079 73.1254ZM272.828 39.0703C286.067 39.0703 290.902 43.7392 291.112 54.5599V83.3121C291.112 83.9478 290.691 84.2675 290.165 84.2675H282.6C281.969 84.2675 281.655 83.8431 281.655 83.3121V80.1296H281.549C279.552 83.1007 275.455 85.223 269.36 85.223C261.375 85.223 254.755 80.9767 254.755 71.7473C254.755 62.1999 261.375 57.7423 272.092 57.7423H275.666C276.294 57.7423 276.611 58.1686 276.611 58.6978V64.5335C276.611 65.1692 276.189 65.4871 275.666 65.4871H273.668C267.153 65.4871 264.318 67.2915 264.318 71.4294C264.318 75.1428 266.944 76.9454 271.776 76.9454C277.976 76.9454 281.444 74.5053 281.444 69.4137V54.6664C281.235 49.891 278.817 47.7705 271.776 47.7705C266.942 47.7705 264.001 49.1504 261.898 50.8482C261.48 51.1643 260.953 51.0578 260.639 50.6351L257.276 44.5863C257.065 44.1636 257.17 43.7392 257.487 43.4213C260.953 40.7681 265.683 39.0703 272.828 39.0703ZM166.437 57.7423L166.436 57.7441H178.731C179.047 57.7441 179.258 57.531 179.258 57.2113C179.258 55.7267 179.047 54.5599 178.731 53.4997C177.576 49.891 174.423 47.7705 170.324 47.7705C166.226 47.7705 162.969 49.891 161.815 53.4997C161.709 53.9241 161.604 54.3485 161.499 54.8778V55.0909C161.184 57.1066 161.079 58.6978 160.973 61.2445C160.959 63.3776 161.134 65.5078 161.497 67.6094C161.602 68.2469 161.813 68.8827 162.024 69.5203C163.389 73.8695 166.859 76.2048 171.691 76.2048C176.631 76.2048 179.678 74.4005 181.884 71.9604C182.304 71.4294 182.829 71.4294 183.249 71.7473L188.503 76.5227C188.924 76.8406 188.924 77.3698 188.608 77.7961C184.825 82.2501 178.731 85.3277 170.745 85.3277C161.604 85.3277 155.089 80.7654 152.672 73.0206C151.727 70.156 151.096 66.7605 151.096 62.1999C151.096 57.6358 151.623 54.1372 152.566 51.2709C154.984 43.5279 161.708 39.0703 170.324 39.0703C179.256 39.0703 185.771 43.7392 188.188 51.2709C189.239 54.3485 189.66 57.4244 189.66 64.5335C189.66 65.1692 189.344 65.4889 188.715 65.4889H166.437C166.121 65.4889 166.016 65.2758 166.016 65.0627V58.1686C166.016 57.8489 166.226 57.7423 166.437 57.7423ZM142.719 21.3111C143.242 21.3111 143.664 21.629 143.769 21.8403V82.3158C143.769 82.9516 143.35 83.2712 142.824 83.2712H134.523C133.894 83.2712 133.577 82.8468 133.577 82.3158V79.0268H133.472C131.474 81.9979 127.903 84.2267 122.019 84.2267C114.662 84.2267 109.198 80.7245 106.992 73.6173C105.837 70.2217 105.416 67.1441 105.416 61.2036C105.416 55.2614 105.941 52.1855 106.992 48.7899C109.198 41.7857 114.453 38.2871 121.702 38.1806H127.903C128.113 38.2853 128.219 38.3919 128.219 38.605V46.9874C128.219 47.1987 128.113 47.41 127.903 47.41H124.331C120.441 47.5166 117.709 49.5322 116.555 53.1391C115.924 55.1548 115.608 57.3836 115.608 61.4149C115.608 65.4463 115.922 67.6751 116.555 69.6907C117.709 73.2976 120.546 75.3151 124.54 75.3151C128.639 75.3151 131.474 73.4042 132.632 69.6907C133.05 68.2061 133.367 66.5083 133.472 63.9616V22.2665C133.472 21.6307 133.892 21.3111 134.417 21.3111H142.719ZM359.699 57.7423L359.698 57.7441H371.993C372.309 57.7441 372.52 57.531 372.52 57.2113C372.52 55.7267 372.309 54.5599 371.993 53.4997C370.838 49.891 367.685 47.7705 363.586 47.7705C359.489 47.7705 356.231 49.891 355.077 53.4997C354.971 53.9241 354.866 54.3485 354.761 54.8778V55.0909C354.446 57.1066 354.341 58.6978 354.235 61.2445C354.221 63.3776 354.396 65.5078 354.759 67.6094C354.864 68.2469 355.075 68.8827 355.286 69.5203C356.651 73.8695 360.121 76.2048 364.953 76.2048C369.893 76.2048 372.94 74.4005 375.146 71.9604C375.566 71.4294 376.092 71.4294 376.511 71.7473L381.765 76.5227C382.186 76.8406 382.186 77.3698 381.87 77.7961C378.087 82.2501 371.993 85.3277 364.007 85.3277C354.866 85.3277 348.351 80.7654 345.934 73.0206C344.989 70.156 344.358 66.7605 344.358 62.1999C344.358 57.6358 344.883 54.1372 345.828 51.2709C348.246 43.5279 354.97 39.0703 363.586 39.0703C372.518 39.0703 379.033 43.7392 381.45 51.2709C382.501 54.3485 382.922 57.4244 382.922 64.5335C382.922 65.1692 382.606 65.4889 381.977 65.4889H359.699C359.383 65.4889 359.278 65.2758 359.278 65.0627V58.1686C359.278 57.8489 359.489 57.7423 359.699 57.7423ZM335.981 21.3111C336.504 21.3111 336.926 21.629 337.137 22.16V82.6337C337.137 83.2694 336.717 83.5891 336.19 83.5891H327.888C327.259 83.5891 326.945 83.1647 326.945 82.6337V79.3464H326.84C324.737 82.3158 321.165 84.5446 315.281 84.5446C307.924 84.5446 302.46 81.0424 300.254 73.9352C299.099 70.5396 298.678 67.3572 298.678 61.4149C298.678 55.3679 299.203 52.2903 300.254 48.8947C302.46 41.894 307.819 38.3919 315.07 38.2853H321.165C321.794 38.2853 322.11 38.7098 322.11 39.2408V46.5611C322.11 47.1987 321.69 47.5166 321.165 47.5166H317.593C313.703 47.6214 310.971 49.6388 309.817 53.2457C309.186 55.2614 308.87 57.4902 308.87 61.5215C308.87 65.5528 309.184 67.7816 309.817 69.7973C310.971 73.509 313.703 75.5264 317.802 75.5264C321.901 75.5264 324.737 73.509 325.894 69.7973C326.312 68.3126 326.629 66.6131 326.734 64.0682V22.2665C326.734 21.6307 327.154 21.3111 327.679 21.3111H335.981ZM245.97 95.8998C247.419 95.8998 247.727 96.3402 247.727 97.6757V104.779C247.727 106.225 247.317 106.555 245.97 106.555H217.859C216.41 106.555 216.102 106.115 216.102 104.779V97.6757C216.102 96.2301 216.357 95.8998 217.859 95.8998H245.97ZM0 1.77592C0 0.532777 0.210831 0.213111 0 0H207.318C208.442 0 208.653 0.106555 209.074 0V104.779C209.074 105.916 208.969 106.129 209.074 106.555C208.653 106.449 208.442 106.555 207.318 106.555H0V106.547L0.0366027 106.407C0.0658848 106.23 0.0248898 106.147 0.00732053 106.348L0 106.483V1.77592ZM10.5416 95.8998H198.533C198.322 95.6885 198.533 95.3724 198.533 94.1239V10.6555H10.5416V95.8998Z" fill="#141E3B"/>
</g>
</svg>
